<?xml version="1.0" encoding="UTF-8"?>
<svg version="1.1" xmlns="http://www.w3.org/2000/svg" width="62" height="62">
<path d="M0 0 C1.37562854 1.28965176 2.70766393 2.62689293 4 4 C5.010625 4.763125 6.02125 5.52625 7.0625 6.3125 C11.52130115 10.39182871 13.12479337 14.5652006 13.390625 20.48828125 C13.30949056 28.3875307 13.21856791 34.82963254 7.75 41 C-0.08212845 48.35904686 -8.52970817 50.6689262 -19.109375 50.4296875 C-27.0378454 49.25113109 -31.63211754 42.39615458 -36.3359375 36.46484375 C-39.6944217 31.49018758 -40.7781651 26.95011609 -40 21 C-38.03985639 12.64413009 -36.16227802 5.91359462 -28.875 0.8125 C-20.34786034 -3.68793482 -8.3235653 -5.41999601 0 0 Z " fill="#263139" transform="translate(44,8)"/>
<path d="M0 0 C1.40742022 2.81484045 0.66652164 4.56936113 0.0625 7.625 C-0.13214844 8.62789062 -0.32679687 9.63078125 -0.52734375 10.6640625 C-0.76130859 11.82035156 -0.76130859 11.82035156 -1 13 C-0.23042969 12.78988281 0.53914062 12.57976563 1.33203125 12.36328125 C2.65267578 12.18345703 2.65267578 12.18345703 4 12 C7.10369833 14.52626608 9.78842772 17.12296869 11 21 C10.625 23.75 10.625 23.75 10 26 C7.3125 26.8125 7.3125 26.8125 4 27 C1.125 24.5625 1.125 24.5625 -1 22 C-1 26.7515235 -0.08065944 27.62703481 2.875 31.1875 C3.59429687 32.06792969 4.31359375 32.94835938 5.0546875 33.85546875 C6.81877136 36.06022296 6.81877136 36.06022296 9 37 C8.79375 35.88625 8.5875 34.7725 8.375 33.625 C8.189375 31.830625 8.189375 31.830625 8 30 C8.66 29.34 9.32 28.68 10 28 C14.34906427 28.32823127 18.0342632 29.19739236 22 31 C22 30.01 22 29.02 22 28 C22.99 27.34 23.98 26.68 25 26 C25.33 25.01 25.66 24.02 26 23 C25.34 23 24.68 23 24 23 C23.67 22.01 23.34 21.02 23 20 C22.67 21.98 22.34 23.96 22 26 C16.50518755 26.36632083 16.50518755 26.36632083 14.3515625 24.8046875 C12.61427482 22.48495656 12.43702978 20.80920718 12.1875 17.9375 C12.09855469 17.05964844 12.00960938 16.18179687 11.91796875 15.27734375 C12 13 12 13 14 11 C15.11375 11.020625 16.2275 11.04125 17.375 11.0625 C21.41255472 10.99288699 21.96893566 10.323816 25 8 C28.19938696 8.07803383 29.53129544 8.56254241 31.875 10.75 C33.3145116 13.6290232 32.9537761 14.97970901 32 18 C31.67 18.66 31.34 19.32 31 20 C30.34 20 29.68 20 29 20 C29 20.66 29 21.32 29 22 C30.98 22.33 32.96 22.66 35 23 C35.33 21.35 35.66 19.7 36 18 C38.375 17.875 38.375 17.875 41 18 C41.66 18.66 42.32 19.32 43 20 C42.65561395 24.13263259 40.93570031 27.38108204 39 31 C37.68 31 36.36 31 35 31 C34.34 32.65 33.68 34.3 33 36 C26.25 36.125 26.25 36.125 24 35 C24 36.32 24 37.64 24 39 C29.94 38.505 29.94 38.505 36 38 C31.17429093 42.82570907 25.58329235 43.14212191 19 43.5 C13.78540218 43.38208196 10.79010354 42.42182759 6.8828125 38.98046875 C-5.53170347 25.92204635 -5.53170347 25.92204635 -5.33203125 16.46484375 C-4.68772066 11.68178516 -3.50168813 3.50168813 0 0 Z " fill="#585B5E" transform="translate(9,15)"/>
<path d="M0 0 C1.37562854 1.28965176 2.70766393 2.62689293 4 4 C5.010625 4.763125 6.02125 5.52625 7.0625 6.3125 C11.52130115 10.39182871 13.12479337 14.5652006 13.390625 20.48828125 C13.37328138 22.09694373 13.32553024 23.70551806 13.25 25.3125 C13.21269775 26.1475708 13.17539551 26.9826416 13.13696289 27.84301758 C12.52982519 35.05497122 10.29849794 38.56752216 4.93359375 43.48046875 C4.29550781 43.98191406 3.65742187 44.48335937 3 45 C2.01 44.505 2.01 44.505 1 44 C1.48210938 43.52949219 1.96421875 43.05898438 2.4609375 42.57421875 C3.09257813 41.95160156 3.72421875 41.32898437 4.375 40.6875 C5.00148437 40.07261719 5.62796875 39.45773438 6.2734375 38.82421875 C9.33998729 35.58422157 10.25542693 33.47575944 10.4140625 29.11328125 C10.45273437 28.17548828 10.49140625 27.23769531 10.53125 26.27148438 C10.57765625 24.80678711 10.57765625 24.80678711 10.625 23.3125 C10.66367187 22.32443359 10.70234375 21.33636719 10.7421875 20.31835938 C10.83645867 17.87909293 10.92206218 15.43983405 11 13 C10.34 13 9.68 13 9 13 C9.04125 14.11375 9.0825 15.2275 9.125 16.375 C9 20 9 20 7 22 C3.375 21.625 3.375 21.625 0 21 C-2.25068815 16.63101712 -1.79341493 13.76048957 -1 9 C-1.495 7.515 -1.495 7.515 -2 6 C-2.66 7.98 -3.32 9.96 -4 12 C-5.81242052 12.02687279 -7.62495233 12.04633715 -9.4375 12.0625 C-10.44683594 12.07410156 -11.45617187 12.08570313 -12.49609375 12.09765625 C-15 12 -15 12 -16 11 C-16.46740995 5.20411664 -16.46740995 5.20411664 -16 3 C-14.68 2.01 -13.36 1.02 -12 0 C-16.62 0.33 -21.24 0.66 -26 1 C-26 1.66 -26 2.32 -26 3 C-25.236875 2.938125 -24.47375 2.87625 -23.6875 2.8125 C-21 3 -21 3 -19.1875 4 C-17.26344862 7.24050758 -17.14493109 10.41983342 -18 14 C-19.78033738 16.61238509 -21.13114299 17.35306357 -24 19 C-27.25 19 -27.25 19 -30 18 C-32.44897847 14.32653229 -32.31537716 12.33643601 -32 8 C-31.34 7.34 -30.68 6.68 -30 6 C-31.32 6.33 -32.64 6.66 -34 7 C-32.79450432 3.24956899 -30.53494653 1.68387224 -27.1171875 -0.1171875 C-18.6456397 -3.64960411 -7.95499648 -5.17999771 0 0 Z " fill="#838485" transform="translate(44,8)"/>
<path d="M0 0 C2.99773701 1.15297577 4.00312605 2.0687521 5.4375 4.9375 C5.18053831 7.63559776 4.64574654 9.52100693 3.4375 11.9375 C2.7775 11.9375 2.1175 11.9375 1.4375 11.9375 C1.4375 12.5975 1.4375 13.2575 1.4375 13.9375 C4.4075 14.4325 4.4075 14.4325 7.4375 14.9375 C7.7675 13.2875 8.0975 11.6375 8.4375 9.9375 C10.8125 9.8125 10.8125 9.8125 13.4375 9.9375 C14.0975 10.5975 14.7575 11.2575 15.4375 11.9375 C15.09311395 16.07013259 13.37320031 19.31858204 11.4375 22.9375 C10.1175 22.9375 8.7975 22.9375 7.4375 22.9375 C7.1075 23.5975 6.7775 24.2575 6.4375 24.9375 C6.1075 24.6075 5.7775 24.2775 5.4375 23.9375 C4.303125 23.958125 3.16875 23.97875 2 24 C-1.5625 23.9375 -1.5625 23.9375 -3.5625 21.9375 C-3.16717975 19.48651444 -2.34948574 17.29845721 -1.5625 14.9375 C-2.2225 14.9375 -2.8825 14.9375 -3.5625 14.9375 C-3.8925 13.9475 -4.2225 12.9575 -4.5625 11.9375 C-4.8925 13.9175 -5.2225 15.8975 -5.5625 17.9375 C-11.05731245 18.30382083 -11.05731245 18.30382083 -13.2109375 16.7421875 C-14.94822518 14.42245656 -15.12547022 12.74670718 -15.375 9.875 C-15.46394531 8.99714844 -15.55289062 8.11929687 -15.64453125 7.21484375 C-15.5625 4.9375 -15.5625 4.9375 -13.5625 2.9375 C-12.44875 2.958125 -11.335 2.97875 -10.1875 3 C-5.68213158 2.92232123 -4.2103962 -0.10269259 0 0 Z " fill="#2F3D46" transform="translate(36.5625,23.0625)"/>
<path d="M0 0 C1.40742022 2.81484045 0.66652164 4.56936113 0.0625 7.625 C-0.13214844 8.62789062 -0.32679687 9.63078125 -0.52734375 10.6640625 C-0.76130859 11.82035156 -0.76130859 11.82035156 -1 13 C-0.23042969 12.78988281 0.53914062 12.57976563 1.33203125 12.36328125 C2.65267578 12.18345703 2.65267578 12.18345703 4 12 C7.10369833 14.52626608 9.78842772 17.12296869 11 21 C10.625 23.75 10.625 23.75 10 26 C7.3125 26.8125 7.3125 26.8125 4 27 C1.125 24.5625 1.125 24.5625 -1 22 C-1.03156867 26.26979107 -1.03156867 26.26979107 1.40625 29.234375 C1.90253906 29.80800781 2.39882812 30.38164063 2.91015625 30.97265625 C3.43480469 31.55917969 3.95945312 32.14570312 4.5 32.75 C5.02464844 33.35199219 5.54929687 33.95398437 6.08984375 34.57421875 C7.38447868 36.05716421 8.69110882 37.52962225 10 39 C7 39 7 39 5.09765625 37.3125 C-5.82920337 24.89656738 -5.82920337 24.89656738 -5.40234375 16.359375 C-3.1497006 3.1497006 -3.1497006 3.1497006 0 0 Z " fill="#787A7B" transform="translate(9,15)"/>
<path d="M0 0 C0.99 0.66 1.98 1.32 3 2 C3.9698653 8.57353145 3.9698653 8.57353145 1.86328125 11.671875 C-0.81392778 14.17341415 -2.59695577 15 -6.25 15 C-9 14 -9 14 -11 11 C-11.4375 7.5625 -11.4375 7.5625 -11 4 C-7.65383283 0.16174943 -5.00538003 -0.65287566 0 0 Z " fill="#D5DDD1" transform="translate(23,12)"/>
<path d="M0 0 C0.33 0 0.66 0 1 0 C1.33 2.97 1.66 5.94 2 9 C2.66 9 3.32 9 4 9 C3.6875 10.9375 3.6875 10.9375 3 13 C2.01 13.33 1.02 13.66 0 14 C0 14.99 0 15.98 0 17 C-1.051875 16.67 -2.10375 16.34 -3.1875 16 C-6.38873357 15.16033218 -8.7411008 14.80249096 -12 15 C-12.59732819 17.76264289 -13 20.16032769 -13 23 C-16.58918119 21.5342196 -18.36377741 19.63223332 -20.6875 16.5625 C-21.28949219 15.78003906 -21.89148438 14.99757813 -22.51171875 14.19140625 C-25.25177704 10.15683223 -25.08968866 6.75349906 -25 2 C-24.67 2 -24.34 2 -24 2 C-23.7525 2.9075 -23.505 3.815 -23.25 4.75 C-21.89649254 8.26911941 -21.10640228 9.87456686 -18 12 C-15.24238782 12.32753248 -12.79408358 12.18627224 -10 12 C-10 11.01 -10 10.02 -10 9 C-9.46375 9.309375 -8.9275 9.61875 -8.375 9.9375 C-5.6015043 11.17827439 -2.99957163 11.5909675 0 12 C0 8.04 0 4.08 0 0 Z " fill="#121718" transform="translate(31,29)"/>
<path d="M0 0 C2.25 0.3125 2.25 0.3125 4 1 C3.03320312 1.35191406 3.03320312 1.35191406 2.046875 1.7109375 C-0.2077908 2.81161073 -0.2077908 2.81161073 -0.609375 5.1640625 C-0.67898437 6.38222656 -0.67898437 6.38222656 -0.75 7.625 C-0.80671875 8.44226562 -0.8634375 9.25953125 -0.921875 10.1015625 C-0.94765625 10.72804688 -0.9734375 11.35453125 -1 12 C-1.33 12 -1.66 12 -2 12 C-2.33 13.98 -2.66 15.96 -3 18 C-8.49481245 18.36632083 -8.49481245 18.36632083 -10.6484375 16.8046875 C-12.38572518 14.48495656 -12.56297022 12.80920718 -12.8125 9.9375 C-12.90144531 9.05964844 -12.99039062 8.18179687 -13.08203125 7.27734375 C-13 5 -13 5 -11 3 C-9.88625 3.020625 -8.7725 3.04125 -7.625 3.0625 C-3.62439385 2.99352403 -2.97636615 2.36056626 0 0 Z " fill="#50626D" transform="translate(34,23)"/>
<path d="M0 0 C3.7109611 0.31991044 4.99743948 0.7900419 7.625 3.3125 C7.295 5.9525 6.965 8.5925 6.625 11.3125 C4.81257948 11.33937279 3.00004767 11.35883715 1.1875 11.375 C0.17816406 11.38660156 -0.83117188 11.39820313 -1.87109375 11.41015625 C-4.375 11.3125 -4.375 11.3125 -5.375 10.3125 C-5.64814815 4.57638889 -5.64814815 4.57638889 -5.375 2.3125 C-3.375 0.3125 -3.375 0.3125 0 0 Z " fill="#AEB9B7" transform="translate(33.375,8.6875)"/>
<path d="M0 0 C3.49734228 0.38859359 6.65788261 0.88596087 10 2 C12.14809171 5.22213757 12.29386153 6.27775401 12 10 C10.43081508 11.56918492 8.85914841 11.28258943 6.6875 11.375 C3.04930584 11.3343822 2.2880193 11.24001608 -0.625 8.8125 C-2 6 -2 6 -1.8125 3.25 C-1 1 -1 1 0 0 Z " fill="#55676F" transform="translate(19,43)"/>
<path d="M0 0 C0.33 0 0.66 0 1 0 C2.06552581 12.04213301 2.06552581 12.04213301 -0.41796875 16.60546875 C-2.18055795 18.60858185 -3.92470843 20.3254253 -6 22 C-6.928125 22.82371094 -6.928125 22.82371094 -7.875 23.6640625 C-10.56565268 25.35561253 -12.5948625 25.4996942 -15.75 25.6875 C-16.73484375 25.75324219 -17.7196875 25.81898437 -18.734375 25.88671875 C-19.48203125 25.92410156 -20.2296875 25.96148437 -21 26 C-20.67 24.35 -20.34 22.7 -20 21 C-17.03 21 -14.06 21 -11 21 C-10.34 19.68 -9.68 18.36 -9 17 C-8.360625 16.87625 -7.72125 16.7525 -7.0625 16.625 C-4.6960281 16.14637236 -4.6960281 16.14637236 -3.25 13.375 C-1.87953427 9.67474253 -1.92621512 6.91059874 -2 3 C-1.34 2.01 -0.68 1.02 0 0 Z " fill="#14191E" transform="translate(53,29)"/>
<path d="M0 0 C2.4375 0.1875 2.4375 0.1875 3.4375 1.1875 C3.50929964 2.70678038 3.52142007 4.22917482 3.5 5.75 C3.49097656 6.57628906 3.48195313 7.40257812 3.47265625 8.25390625 C3.46105469 8.89199219 3.44945312 9.53007813 3.4375 10.1875 C1.1275 10.1875 -1.1825 10.1875 -3.5625 10.1875 C-4.94375018 7.42499964 -4.75329306 5.24018901 -4.5625 2.1875 C-2.5625 0.1875 -2.5625 0.1875 0 0 Z " fill="#909E9E" transform="translate(25.5625,25.8125)"/>
<path d="M0 0 C5.5952381 0.5952381 5.5952381 0.5952381 8 3 C8.125 5.625 8.125 5.625 8 8 C1.84765625 8.87890625 1.84765625 8.87890625 0 9 C-1 8 -1 8 -1.125 4.5 C-1 1 -1 1 0 0 Z " fill="#9FABA8" transform="translate(9,27)"/>
<path d="M0 0 C0.33 0 0.66 0 1 0 C1.70631514 6.94543225 1.70631514 6.94543225 -0.125 9.6796875 C-1.625 11.0625 -1.625 11.0625 -5 13 C-8.375 12.8125 -8.375 12.8125 -11 12 C-11 11.34 -11 10.68 -11 10 C-5.99126383 5.10774607 -5.99126383 5.10774607 -2.125 4.6875 C-1.073125 4.8421875 -1.073125 4.8421875 0 5 C0 3.35 0 1.7 0 0 Z " fill="#6D828D" transform="translate(25,14)"/>
<path d="M0 0 C0 2.64 0 5.28 0 8 C-3.375 8.125 -3.375 8.125 -7 8 C-7.66 7.34 -8.32 6.68 -9 6 C-8.8125 4 -8.8125 4 -8 2 C-4.77208445 -0.1519437 -3.71599191 -0.20086443 0 0 Z " fill="#C3D1CB" transform="translate(42,39)"/>
<path d="M0 0 C0.66 0 1.32 0 2 0 C2 6.93 2 13.86 2 21 C1.67 21 1.34 21 1 21 C0.67 17.37 0.34 13.74 0 10 C-0.66 11.32 -1.32 12.64 -2 14 C-4.9375 13.25 -4.9375 13.25 -8 12 C-8.875 9.875 -8.875 9.875 -9 8 C-7.865625 8.020625 -6.73125 8.04125 -5.5625 8.0625 C-2.18424326 8.41577477 -2.18424326 8.41577477 -1 7 C-0.63239269 4.67182036 -0.29758419 2.3381615 0 0 Z " fill="#25292C" transform="translate(53,21)"/>
<path d="M0 0 C4.55555556 0.55555556 4.55555556 0.55555556 6 2 C6.04063832 3.66617115 6.042721 5.33388095 6 7 C3 8 3 8 0 7 C0 8.32 0 9.64 0 11 C-0.66 11 -1.32 11 -2 11 C-2.05399736 9.54207116 -2.09279177 8.08357288 -2.125 6.625 C-2.15980469 5.40683594 -2.15980469 5.40683594 -2.1953125 4.1640625 C-2 2 -2 2 0 0 Z " fill="#DEE8DB" transform="translate(35,24)"/>
<path d="M0 0 C2.625 0.375 2.625 0.375 4.4375 2.5625 C5.65536243 5.44691101 5.88981787 7.28545823 5.625 10.375 C4.965 10.375 4.305 10.375 3.625 10.375 C3.625 9.715 3.625 9.055 3.625 8.375 C0.985 7.715 -1.655 7.055 -4.375 6.375 C-3.325 0.525 -3.325 0.525 0 0 Z " fill="#B8C6C4" transform="translate(46.375,16.625)"/>
<path d="M0 0 C2.5625 0.3125 2.5625 0.3125 4.375 1.5625 C5.5625 3.3125 5.5625 3.3125 5.5625 7.3125 C2.5925 7.3125 -0.3775 7.3125 -3.4375 7.3125 C-4.0625 4.9375 -4.0625 4.9375 -4.4375 2.3125 C-2.4375 0.3125 -2.4375 0.3125 0 0 Z " fill="#B3BEBA" transform="translate(21.4375,42.6875)"/>
<path d="M0 0 C0.99 0.66 1.98 1.32 3 2 C3.3125 5.5 3.3125 5.5 3 9 C2.34 9.66 1.68 10.32 1 11 C-2.625 10.625 -2.625 10.625 -6 10 C-6.66 8.02 -7.32 6.04 -8 4 C-2.25 4.875 -2.25 4.875 0 6 C0 6.66 0 7.32 0 8 C0.66 8 1.32 8 2 8 C1.34 5.36 0.68 2.72 0 0 Z " fill="#687B87" transform="translate(50,19)"/>
<path d="M0 0 C0.33 0 0.66 0 1 0 C1.02578125 0.78503906 1.0515625 1.57007812 1.078125 2.37890625 C1.72273667 14.3188724 5.97708318 19.4123633 14 28 C11 28 11 28 9.09765625 26.3125 C-1.15235456 14.6656547 -1.15235456 14.6656547 -1.3125 6.6875 C-1 3 -1 3 0 0 Z " fill="#A9A9A9" transform="translate(5,26)"/>
<path d="M0 0 C0.33 0 0.66 0 1 0 C1.02687279 1.81242052 1.04633715 3.62495233 1.0625 5.4375 C1.07410156 6.44683594 1.08570313 7.45617188 1.09765625 8.49609375 C1 11 1 11 0 12 C-3.375 12.375 -3.375 12.375 -7 12 C-9 9.6875 -9 9.6875 -10 7 C-9.67 6.01 -9.34 5.02 -9 4 C-8.01 5.485 -8.01 5.485 -7 7 C-3.43230448 7.73606499 -3.43230448 7.73606499 0 8 C0 5.36 0 2.72 0 0 Z " fill="#4B5D68" transform="translate(42,39)"/>
<path d="M0 0 C0.66 0 1.32 0 2 0 C2 0.66 2 1.32 2 2 C1.01 2.495 1.01 2.495 0 3 C-0.33 3.99 -0.66 4.98 -1 6 C-0.01 5.34 0.98 4.68 2 4 C4.04296875 3.8046875 4.04296875 3.8046875 6.1875 3.875 C8.0746875 3.936875 8.0746875 3.936875 10 4 C10.33 2.68 10.66 1.36 11 0 C11 1.65 11 3.3 11 5 C10.071875 5.268125 9.14375 5.53625 8.1875 5.8125 C5.02735393 6.72794661 5.02735393 6.72794661 3.375 8.6875 C2.694375 9.3371875 2.694375 9.3371875 2 10 C-0.1875 9.6875 -0.1875 9.6875 -2 9 C-2.125 5.625 -2.125 5.625 -2 2 C-1.34 1.34 -0.68 0.68 0 0 Z " fill="#B0BEBA" transform="translate(14,14)"/>
<path d="M0 0 C0 0.33 0 0.66 0 1 C-1.6396875 1.4021875 -1.6396875 1.4021875 -3.3125 1.8125 C-6.91638695 2.62723909 -6.91638695 2.62723909 -8.4375 4.625 C-8.953125 5.07875 -9.46875 5.5325 -10 6 C-12.26171875 5.85546875 -12.26171875 5.85546875 -14.6875 5.1875 C-15.49574219 4.97480469 -16.30398437 4.76210937 -17.13671875 4.54296875 C-17.75160156 4.36378906 -18.36648437 4.18460938 -19 4 C-19 3.34 -19 2.68 -19 2 C-12.6221448 0.82706111 -6.49678438 -0.29530838 0 0 Z " fill="#0D0E0E" transform="translate(37,7)"/>
<path d="M0 0 C0.33 0 0.66 0 1 0 C1.33 2.97 1.66 5.94 2 9 C2.66 9 3.32 9 4 9 C3.6875 10.9375 3.6875 10.9375 3 13 C2.01 13.33 1.02 13.66 0 14 C0 14.99 0 15.98 0 17 C-1.65 16.67 -3.3 16.34 -5 16 C-4.67 15.01 -4.34 14.02 -4 13 C-2.68 12.67 -1.36 12.34 0 12 C0 8.04 0 4.08 0 0 Z " fill="#090F12" transform="translate(31,29)"/>
<path d="M0 0 C2.64 0 5.28 0 8 0 C8.33 1.65 8.66 3.3 9 5 C5.7 5 2.4 5 -1 5 C-0.67 3.35 -0.34 1.7 0 0 Z " fill="#E1E8DF" transform="translate(31,10)"/>
<path d="M0 0 C2.0625 0.4375 2.0625 0.4375 4 1 C3.03320312 1.35191406 3.03320312 1.35191406 2.046875 1.7109375 C-0.2077908 2.81161073 -0.2077908 2.81161073 -0.609375 5.1640625 C-0.65578125 5.97617187 -0.7021875 6.78828125 -0.75 7.625 C-0.80671875 8.44226562 -0.8634375 9.25953125 -0.921875 10.1015625 C-0.94765625 10.72804688 -0.9734375 11.35453125 -1 12 C-1.33 12 -1.66 12 -2 12 C-2.33 13.98 -2.66 15.96 -3 18 C-3.66 17.67 -4.32 17.34 -5 17 C-4.98839844 16.15695313 -4.97679688 15.31390625 -4.96484375 14.4453125 C-4.95582031 13.34960938 -4.94679688 12.25390625 -4.9375 11.125 C-4.92589844 10.03445312 -4.91429688 8.94390625 -4.90234375 7.8203125 C-4.80255697 5.04822454 -4.80255697 5.04822454 -6 3 C-5.195625 2.690625 -4.39125 2.38125 -3.5625 2.0625 C-1.10919595 1.23664655 -1.10919595 1.23664655 0 0 Z " fill="#414C4E" transform="translate(34,23)"/>
<path d="M0 0 C0.66 0.33 1.32 0.66 2 1 C2.40729228 3.32156597 2.74438677 5.6568787 3 8 C0 10 0 10 -3.0625 9.8125 C-6 9 -6 9 -8 6 C-4.7 6.33 -1.4 6.66 2 7 C1.34 4.69 0.68 2.38 0 0 Z " fill="#4D5F6A" transform="translate(17,32)"/>
<path d="M0 0 C0.99 0.33 1.98 0.66 3 1 C2.505 1.350625 2.01 1.70125 1.5 2.0625 C-0.75322054 4.97290987 -0.25966039 7.42966966 0 11 C0.33 11.66 0.66 12.32 1 13 C-0.65 13 -2.3 13 -4 13 C-3.40546697 3.40546697 -3.40546697 3.40546697 0 0 Z " fill="#131413" transform="translate(12,13)"/>
<path d="M0 0 C0.33 0 0.66 0 1 0 C1 2.31 1 4.62 1 7 C1.66 6.67 2.32 6.34 3 6 C4.54613014 6.08651631 6.08909387 6.24002636 7.625 6.4375 C8.85089844 6.59025391 8.85089844 6.59025391 10.1015625 6.74609375 C11.04128906 6.87177734 11.04128906 6.87177734 12 7 C12 7.66 12 8.32 12 9 C10.18757948 9.02687279 8.37504767 9.04633715 6.5625 9.0625 C5.55316406 9.07410156 4.54382812 9.08570313 3.50390625 9.09765625 C1 9 1 9 0 8 C-0.14115161 5.32941149 -0.04247107 2.67567762 0 0 Z " fill="#6D8088" transform="translate(28,11)"/>
<path d="M0 0 C2.375 -0.125 2.375 -0.125 5 0 C7 2 7 2 7 6 C2.25 5.125 2.25 5.125 0 4 C0 2.68 0 1.36 0 0 Z " fill="#B3BFBA" transform="translate(45,33)"/>
<path d="M0 0 C2.9375 0.75 2.9375 0.75 6 2 C6.875 4.125 6.875 4.125 7 6 C4.69 6 2.38 6 0 6 C0 4.02 0 2.04 0 0 Z " fill="#CDD9D0" transform="translate(9,28)"/>
<path d="M0 0 C0.33 0 0.66 0 1 0 C1.66 2.97 2.32 5.94 3 9 C4.65 9.33 6.3 9.66 8 10 C7.01 10.495 7.01 10.495 6 11 C5.67 11.66 5.34 12.32 5 13 C4.01 12.34 3.02 11.68 2 11 C-1.14221967 11.31506627 -1.14221967 11.31506627 -4 12 C-4 11.01 -4 10.02 -4 9 C-2.35 8.67 -0.7 8.34 1 8 C0.67 7.67 0.34 7.34 0 7 C-0.04092937 4.66702567 -0.04241723 2.33294775 0 0 Z " fill="#323939" transform="translate(11,17)"/>
<path d="M0 0 C0.66 0.66 1.32 1.32 2 2 C1.625 5.625 1.625 5.625 1 9 C-1.31 9 -3.62 9 -6 9 C-5.67 8.01 -5.34 7.02 -5 6 C-4.34 5.690625 -3.68 5.38125 -3 5.0625 C-0.79394438 4.17972859 -0.79394438 4.17972859 -0.25 1.875 C-0.1675 1.25625 -0.085 0.6375 0 0 Z " fill="#080D12" transform="translate(43,29)"/>
<path d="M0 0 C0.75 1.75 0.75 1.75 1 4 C-1.31787009 7.00464642 -3.2273236 8.46104623 -7 9 C-7.33 8.34 -7.66 7.68 -8 7 C-7.34 7 -6.68 7 -6 7 C-6 5.68 -6 4.36 -6 3 C-4.35 3 -2.7 3 -1 3 C-0.67 2.01 -0.34 1.02 0 0 Z " fill="#6D7E81" transform="translate(41,28)"/>
<path d="M0 0 C0.33 0.66 0.66 1.32 1 2 C3.31 2 5.62 2 8 2 C8 3.32 8 4.64 8 6 C4.625 6.125 4.625 6.125 1 6 C0.34 5.34 -0.32 4.68 -1 4 C-0.625 1.875 -0.625 1.875 0 0 Z " fill="#8A9B9F" transform="translate(34,41)"/>
<path d="M0 0 C2 3 2 3 2 5 C-1.3 4.67 -4.6 4.34 -8 4 C-8 3.34 -8 2.68 -8 2 C-5.36 1.34 -2.72 0.68 0 0 Z " fill="#798A91" transform="translate(17,34)"/>
<path d="M0 0 C0.99 0.66 1.98 1.32 3 2 C3.1875 4.625 3.1875 4.625 3 7 C0 8 0 8 -3 7 C-3 8.32 -3 9.64 -3 11 C-3.66 11 -4.32 11 -5 11 C-5 9.35 -5 7.7 -5 6 C-3.02 6 -1.04 6 1 6 C0.67 4.02 0.34 2.04 0 0 Z " fill="#AEBBB6" transform="translate(38,24)"/>
<path d="M0 0 C1.29905098 0.7371359 2.58901122 1.49030556 3.875 2.25 C4.59429687 2.66765625 5.31359375 3.0853125 6.0546875 3.515625 C8.20874162 5.15928076 8.99140585 6.51567335 10 9 C9.236875 8.505 8.47375 8.01 7.6875 7.5 C5.07636249 5.75631692 5.07636249 5.75631692 2 6 C2 5.34 2 4.68 2 4 C1.34 4 0.68 4 0 4 C0 2.68 0 1.36 0 0 Z " fill="#7D7D7D" transform="translate(44,10)"/>
<path d="M0 0 C0.33 0.99 0.66 1.98 1 3 C3.31 3 5.62 3 8 3 C8 2.34 8 1.68 8 1 C8.66 1 9.32 1 10 1 C10 2.32 10 3.64 10 5 C7.03 5 4.06 5 1 5 C0.67 3.35 0.34 1.7 0 0 Z " fill="#87979A" transform="translate(17,45)"/>
<path d="M0 0 C0.99 0.66 1.98 1.32 3 2 C3.1875 5.625 3.1875 5.625 3 9 C1.35 9.33 -0.3 9.66 -2 10 C-2.33 8.35 -2.66 6.7 -3 5 C-2.01 5.33 -1.02 5.66 0 6 C0 6.66 0 7.32 0 8 C0.66 8 1.32 8 2 8 C1.34 5.36 0.68 2.72 0 0 Z " fill="#909FA3" transform="translate(50,19)"/>
<path d="M0 0 C2 1 2 1 3 3 C-2.75 7 -2.75 7 -5 7 C-4.67 5.68 -4.34 4.36 -4 3 C-3.34 3 -2.68 3 -2 3 C-2 2.34 -2 1.68 -2 1 C-1.34 0.67 -0.68 0.34 0 0 Z " fill="#F2F9E9" transform="translate(18,13)"/>
<path d="M0 0 C1.22589844 0.15275391 1.22589844 0.15275391 2.4765625 0.30859375 C3.41628906 0.43427734 3.41628906 0.43427734 4.375 0.5625 C4.375 0.8925 4.375 1.2225 4.375 1.5625 C0.05440177 2.66095718 -4.24167943 3.74062739 -8.625 4.5625 C-6.48538859 -0.17521098 -5.07875667 -0.652983 0 0 Z " fill="#6D6F6C" transform="translate(18.625,10.4375)"/>
<path d="M0 0 C2.64 0.66 5.28 1.32 8 2 C8 2.66 8 3.32 8 4 C3.545 4.495 3.545 4.495 -1 5 C-0.67 3.35 -0.34 1.7 0 0 Z " fill="#02060E" transform="translate(33,50)"/>
<path d="M0 0 C1.65 0.33 3.3 0.66 5 1 C4.67 2.65 4.34 4.3 4 6 C2.02 5.34 0.04 4.68 -2 4 C-1.34 2.68 -0.68 1.36 0 0 Z " fill="#04060A" transform="translate(27,21)"/>
<path d="M0 0 C-0.33 0.66 -0.66 1.32 -1 2 C-4.69900008 1.11223998 -8.34550461 0.05418136 -12 -1 C-12 -1.33 -12 -1.66 -12 -2 C-6.84854146 -3.28786464 -4.42296703 -2.94864468 0 0 Z " fill="#373837" transform="translate(44,10)"/>
<path d="M0 0 C8.57142857 -0.28571429 8.57142857 -0.28571429 12 2 C7.87831311 3.62950412 5.29299643 4.26264601 1 3 C0.67 2.01 0.34 1.02 0 0 Z " fill="#1F292D" transform="translate(11,41)"/>
<path d="M0 0 C2.475 0.99 2.475 0.99 5 2 C4.34 3.65 3.68 5.3 3 7 C2.01 7 1.02 7 0 7 C0 4.69 0 2.38 0 0 Z " fill="#546873" transform="translate(46,37)"/>
<path d="M0 0 C1.32 0 2.64 0 4 0 C6.1519437 3.22791555 6.20086443 4.28400809 6 8 C5.34 8 4.68 8 4 8 C3.71125 7.195625 3.4225 6.39125 3.125 5.5625 C2.26737432 2.8673532 2.26737432 2.8673532 0 2 C0 1.34 0 0.68 0 0 Z " fill="#D8E8E0" transform="translate(46,19)"/>
<path d="M0 0 C1.485 0.99 1.485 0.99 3 2 C5.27912938 2.45394552 5.27912938 2.45394552 7.6875 2.625 C8.49574219 2.69976562 9.30398437 2.77453125 10.13671875 2.8515625 C10.75160156 2.90054688 11.36648437 2.94953125 12 3 C12 3.33 12 3.66 12 4 C8.98735648 4.59222907 6.07583023 5.05823431 3 5 C0.4375 3.0625 0.4375 3.0625 -1 1 C-0.67 0.67 -0.34 0.34 0 0 Z " fill="#22292E" transform="translate(18,51)"/>
<path d="M0 0 C2.31 0.33 4.62 0.66 7 1 C6.67 1.99 6.34 2.98 6 4 C4.35 4 2.7 4 1 4 C0.67 2.68 0.34 1.36 0 0 Z " fill="#36424A" transform="translate(44,29)"/>
<path d="M0 0 C2 1 2 1 2.75 2.75 C3.07158914 5.64430225 2.22746624 7.40065973 1 10 C-1.56687367 6.1496895 -0.83288724 4.41430237 0 0 Z " fill="#333B3F" transform="translate(41,13)"/>
<path d="M0 0 C1.65 0 3.3 0 5 0 C5 0.99 5 1.98 5 3 C3.02 3.33 1.04 3.66 -1 4 C-0.67 2.68 -0.34 1.36 0 0 Z " fill="#E5EDE1" transform="translate(23,28)"/>
<path d="M0 0 C-0.33 2.31 -0.66 4.62 -1 7 C-1.99 6.34 -2.98 5.68 -4 5 C-4 3.68 -4 2.36 -4 1 C-2 0 -2 0 0 0 Z " fill="#070D11" transform="translate(21,27)"/>
<path d="M0 0 C3.14624993 -0.26218749 4.61837017 -0.24754367 7.3125 1.5 C8.1478125 2.2425 8.1478125 2.2425 9 3 C6.69 3.66 4.38 4.32 2 5 C2 4.01 2 3.02 2 2 C1.34 2 0.68 2 0 2 C0 1.34 0 0.68 0 0 Z " fill="#3C4748" transform="translate(33,36)"/>
<path d="M0 0 C0.33 0 0.66 0 1 0 C1 3.96 1 7.92 1 12 C0.67 12 0.34 12 0 12 C-0.39063507 10.56666979 -0.76198474 9.12807321 -1.125 7.6875 C-1.33382812 6.88699219 -1.54265625 6.08648437 -1.7578125 5.26171875 C-2 3 -2 3 0 0 Z " fill="#010304" transform="translate(53,29)"/>
<path d="M0 0 C0.66 0.99 1.32 1.98 2 3 C1.25 6.625 1.25 6.625 0 10 C-0.99 10.495 -0.99 10.495 -2 11 C-1.85892253 9.54119891 -1.71197585 8.08296449 -1.5625 6.625 C-1.48128906 5.81289063 -1.40007813 5.00078125 -1.31640625 4.1640625 C-1 2 -1 2 0 0 Z " fill="#232D36" transform="translate(42,24)"/>
<path d="M0 0 C0.66 0.33 1.32 0.66 2 1 C1.67 1.33 1.34 1.66 1 2 C1.66 2.66 2.32 3.32 3 4 C0.69 4.66 -1.62 5.32 -4 6 C-4 5.01 -4 4.02 -4 3 C-2 1.3125 -2 1.3125 0 0 Z " fill="#262E38" transform="translate(25,22)"/>
</svg>
